HIERARCHY
ROOT Hips
{
     OFFSET 1.88212 96.90440 -13.34250
     CHANNELS 6 Xposition Yposition Zposition Zrotation Xrotation Yrotation
     JOINT Spine
     {
          OFFSET 0.00000 11.89050 0.00000
          CHANNELS 3 Zrotation Xrotation Yrotation
          JOINT Spine1
          {
               OFFSET -0.00000 25.65740 0.12766
               CHANNELS 3 Zrotation Xrotation Yrotation
               JOINT HEad
               {
                    OFFSET 0.00000 8.73416 0.01134
                    CHANNELS 3 Zrotation Xrotation Yrotation
                    End Site
                    {
                         OFFSET -0.29000 12.77420 2.51395
                    }
               }
               JOINT LeftShoulder1
               {
                    OFFSET 8.99000 -0.36225 -0.22000
                    CHANNELS 3 Zrotation Xrotation Yrotation
                    JOINT LeftArm
                    {
                         OFFSET 10.28270 -0.00338 0.32212
                         CHANNELS 3 Zrotation Xrotation Yrotation
                         JOINT LeftForeArm
                         {
                              OFFSET 32.76690 0.09914 -1.42434
                              CHANNELS 3 Zrotation Xrotation Yrotation
                              JOINT LeftHand
                              {
                                   OFFSET 27.56430 0.08536 1.02216
                                   CHANNELS 3 Zrotation Xrotation Yrotation
                                   End Site
                                   {
                                        OFFSET 16.74430 -0.60000 1.50291
                                   }
                              }
                         }
                    }
               }
               JOINT RightShoulder
               {
                    OFFSET -8.99000 -0.36225 -0.22000
                    CHANNELS 3 Zrotation Xrotation Yrotation
                    JOINT RightArm
                    {
                         OFFSET -10.28270 -0.00338 0.32212
                         CHANNELS 3 Zrotation Xrotation Yrotation
                         JOINT RightForeArm
                         {
                              OFFSET -32.89710 0.09914 -1.42434
                              CHANNELS 3 Zrotation Xrotation Yrotation
                              JOINT RightHand
                              {
                                   OFFSET -27.49210 0.08536 1.02216
                                   CHANNELS 3 Zrotation Xrotation Yrotation
                                   End Site
                                   {
                                        OFFSET -16.63120 -0.60000 1.50291
                                   }
                              }
                         }
                    }
               }
          }
     }
     JOINT LeftUpLeg
     {
          OFFSET 8.94580 -8.66707 0.10165
          CHANNELS 3 Zrotation Xrotation Yrotation
          JOINT LeftLeg
          {
               OFFSET 0.00000 -44.42270 1.37270
               CHANNELS 3 Zrotation Xrotation Yrotation
               JOINT LeftFoot
               {
                    OFFSET -0.25355 -42.09240 -1.46059
                    CHANNELS 3 Zrotation Xrotation Yrotation
                    JOINT LeftToes
                    {
                         OFFSET -0.04000 -4.41509 8.49910
                         CHANNELS 3 Zrotation Xrotation Yrotation
                         End Site
                         {
                              OFFSET 0.08000 -0.04745 9.77979
                         }
                    }
               }
          }
     }
     JOINT RightUpLeg
     {
          OFFSET -8.94580 -8.66707 0.10165
          CHANNELS 3 Zrotation Xrotation Yrotation
          JOINT RightLeg
          {
               OFFSET 0.00000 -44.42270 1.37270
               CHANNELS 3 Zrotation Xrotation Yrotation
               JOINT RightFoot
               {
                    OFFSET 0.25355 -42.09240 -1.46059
                    CHANNELS 3 Zrotation Xrotation Yrotation
                    JOINT RightToes
                    {
                         OFFSET 0.04000 -4.41509 8.49910
                         CHANNELS 3 Zrotation Xrotation Yrotation
                         End Site
                         {
                              OFFSET -0.08000 -0.13745 9.77979
                         }
                    }
               }
          }
     }
}
MOTION
Frames: 20
Frame Time: 0.01667
43.69827 79.70580 -122.15240 0.54562 -5.11217 -26.44314 -7.68257 30.63995 0.95809 -0.03691 0.08531 0.01532 -12.25327 4.32323 17.40787 -19.94524 30.59555 8.82131 -100.82013 -59.80251 -70.63882 -34.87136 55.61620 -97.89503 8.30647 2.85576 1.34553 -14.38001 36.22915 15.58454 76.17983 -24.87717 76.44779 35.77342 46.96767 90.35242 -0.60673 1.87444 0.14325 9.26308 -27.69500 6.91178 34.34285 35.08347 -13.13287 3.01850 -0.16168 0.13500 -34.64237 -14.17529 -0.93504 -18.58137 -32.96030 -22.80161 -40.66617 52.47906 56.70922 34.93896 0.12987 0.21666 -30.60672 -34.10989 -2.76033 
44.22927 75.45858 -122.72015 1.00494 -3.91804 -21.42694 -8.53536 35.28265 -1.57048 -0.03331 0.07240 0.01460 -12.87090 2.00559 17.63546 -28.92050 33.46520 14.91960 -100.77862 -54.47977 -80.61171 -30.63312 54.57756 -101.35387 2.34411 7.24233 -0.35875 -9.47719 32.54994 13.89861 69.67005 -22.41198 70.10015 29.52410 44.05344 96.88226 -4.82329 11.51676 4.11210 7.87441 -36.31968 2.32573 38.76281 42.88172 -16.17573 6.10185 -0.09079 0.09523 -40.35397 -18.42647 -4.05260 -23.13732 -38.02630 -27.31360 -53.05008 59.16958 66.94348 40.48270 0.14017 0.16804 -36.50210 -39.43827 -2.86474 
44.77318 71.00203 -123.44830 1.41076 -3.04748 -16.97895 -10.12814 40.55039 -2.38948 -0.03271 0.06218 0.00950 -13.97161 -0.50347 17.70914 -23.81126 29.40275 10.62243 -98.36346 -54.05467 -77.53381 -28.52864 53.46661 -102.96779 6.03034 5.69764 -2.53328 -4.22701 28.48926 12.11300 65.77698 -20.41636 66.52531 25.54888 41.90836 101.05422 -1.41630 7.02377 4.49851 5.49680 -45.89388 -1.92148 46.32938 50.78664 -23.74938 8.67985 -0.05595 0.07317 -45.50085 -17.51717 -8.92675 -28.69172 -43.18294 -30.88109 -71.20086 65.26852 83.15511 46.21756 0.15360 0.15571 -42.43281 -44.38080 -3.01755 
45.27180 66.12497 -124.30872 1.81303 -2.43845 -12.99155 -12.64604 46.14746 -1.36217 -0.03526 0.05208 0.01189 -15.61874 -3.21945 17.42970 -19.00396 25.07581 7.14288 -96.17303 -53.32821 -75.52741 -27.39060 52.71424 -104.16056 3.14740 8.22415 -2.94642 0.81156 24.14235 10.67376 63.77286 -19.15221 64.74039 24.16495 44.40173 106.38623 -6.88003 13.26962 3.43127 1.89569 -55.93389 -6.23634 58.32269 57.78524 -37.06929 11.12300 -0.03556 0.06640 -50.38031 -19.20605 -12.07800 -35.25126 -48.07182 -33.73588 -96.87613 68.76157 107.35423 52.32459 0.17408 0.13791 -49.05304 -48.82514 -4.63130 
45.62974 61.20464 -125.26620 2.22180 -2.04036 -9.43563 -16.50139 51.74748 1.79006 -0.03860 0.04266 0.00756 -17.82552 -6.22845 16.68375 -14.03813 20.63559 4.06258 -94.49551 -52.58575 -74.20234 -26.92831 52.15616 -105.30872 5.43914 7.41906 -3.87582 5.76513 19.57518 9.10145 62.81562 -18.24440 64.10078 22.92027 45.70089 110.16308 -6.32302 11.73269 1.08427 -3.09594 -65.81614 -11.01245 74.77805 62.41061 -56.07964 13.76433 -0.02119 0.06383 -54.20467 -19.77754 -15.07059 -42.46355 -52.35588 -35.83770 -124.32423 68.15584 134.00316 58.86999 0.18818 0.10816 -56.04873 -53.01627 -6.22584 
45.90001 56.14292 -126.10052 2.65183 -1.83572 -6.25754 -22.39818 56.83136 7.67569 -0.04591 0.01826 0.00449 -19.16493 -8.68136 14.89481 -9.14253 16.09171 1.55797 -92.77136 -51.68683 -73.00798 -26.86258 51.79173 -106.71626 4.03193 9.06223 -3.53741 0.95268 17.05164 17.15892 71.60390 -25.56083 64.66085 21.52587 46.68924 113.57517 4.28069 6.04091 12.46714 -9.53715 -75.15876 -16.57346 92.91145 65.68173 -78.06987 18.47813 -0.01162 0.11225 -57.97436 -21.11351 -17.22170 -49.27017 -55.85218 -36.48965 -142.35756 63.45074 151.12219 67.49268 0.30331 0.04291 -94.26717 -58.65657 -38.43343 
46.04064 51.33720 -126.75101 3.13601 -1.81495 -3.46298 -31.02197 60.85149 16.87147 -0.04790 0.00484 0.00456 -19.65584 -10.47906 12.37793 -4.04427 11.72508 -0.65990 -91.51334 -50.72680 -72.20280 -27.20326 51.46861 -108.10419 5.40231 8.66881 -3.35367 7.55792 12.76679 13.28964 68.66400 -22.50466 67.24538 22.22737 44.50367 113.01511 -5.81236 11.91295 0.96911 -17.89008 -83.57550 -23.57974 110.92780 67.24564 -100.92463 24.57069 0.02359 0.11155 -60.91405 -22.30449 -18.60213 -54.64483 -58.39029 -34.88979 -154.57964 59.06583 163.21315 75.66241 0.24068 -0.03229 -86.36225 -61.32642 -25.27919 
46.15426 47.04412 -127.05574 3.67296 -1.98618 -1.01648 -42.12514 62.93219 29.15214 -0.05311 -0.03080 0.00753 -18.97342 -12.64512 9.15378 1.10623 7.74611 -2.71694 -90.31313 -49.58437 -71.56401 -27.76031 51.10818 -109.30437 4.51576 9.83878 -2.57592 13.77164 8.73360 9.66431 65.68848 -19.57494 71.83699 22.88699 45.03930 114.51443 10.46360 4.33792 15.31250 4.04595 -90.00000 0.00000 123.80511 66.78282 -118.95722 30.05533 0.02039 0.04192 -63.53537 -22.68467 -18.79115 -57.76310 -59.81313 -30.46431 -162.96150 55.42181 172.15581 83.85507 0.20765 -0.06659 -99.90490 -63.27771 -34.20129 
46.15646 43.46959 -127.06526 4.23687 -2.31603 1.09210 -51.49659 63.42268 39.87180 0.04664 -0.04844 -0.04139 -18.42209 -15.17656 5.93735 -3.71820 -2.58783 0.54218 -78.95623 -42.85245 -67.83106 -32.01142 52.08971 -103.88289 5.03837 9.65725 -1.95766 18.12873 5.49035 6.96217 64.00439 -18.34023 74.37091 23.55214 45.12692 116.09923 4.23156 7.06936 -1.33099 151.71303 -84.30756 149.36110 131.74556 66.60074 -131.86932 35.29456 0.00337 0.00106 -65.45258 -22.76183 -18.56418 -58.25115 -59.95764 -23.28761 -169.15704 53.08594 179.34058 91.86517 0.17422 -0.09499 -101.90337 -65.08028 -31.29325 
46.30806 40.83780 -126.72881 4.78788 -2.78209 2.89838 -58.05538 62.87192 47.87017 0.05020 -0.05416 -0.05023 -17.68686 -17.90756 2.77777 -0.37844 -3.83708 -1.05443 -86.89693 -41.33797 -78.11120 -33.47807 50.75840 -101.87455 13.75209 19.54570 -11.38113 15.80893 -3.24762 12.26921 67.88290 -22.67891 70.60496 26.66742 45.40027 114.07014 3.43184 6.44774 6.51026 142.55107 -80.97156 141.81184 137.49988 67.37021 -141.83446 40.34240 -0.00701 -0.01586 -66.84092 -22.31679 -17.86795 -57.05934 -58.53849 -14.74975 -175.30977 52.06147 186.43629 90.15974 -0.02404 0.00661 -100.68373 -66.52432 -33.68867 
46.53913 39.08830 -126.23331 5.31694 -3.35755 4.44637 -61.86455 61.81266 53.10640 0.04180 -0.04107 -0.04407 -16.77785 -20.87249 -0.30714 2.18581 -4.47871 -2.71126 -91.56729 -39.87467 -83.95924 -34.03740 50.41982 -101.05994 2.11577 7.74497 1.84160 19.06599 -4.09559 9.09714 67.64950 -21.98111 73.90999 28.16019 46.08190 114.28228 -0.67192 8.27004 -3.26777 133.81313 -79.13467 134.49532 142.94193 68.79129 -150.55923 45.02871 -0.00772 -0.01734 -67.77244 -22.03698 -17.19909 -55.26892 -55.79582 -6.32755 -179.96809 52.08700 191.96695 88.48356 -0.03428 0.01651 -96.35020 -68.12422 -32.85639 
47.24961 38.42493 -125.55960 5.79950 -4.01484 5.73910 -61.16846 59.99138 53.66272 0.05071 -0.13097 -0.07011 -15.52164 -22.87607 -2.45525 3.89206 -3.47740 -3.76777 -96.21111 -36.67316 -91.62931 -36.81695 49.93048 -95.35571 18.71071 19.26487 -22.05153 21.65178 -3.35361 6.50478 70.10283 -22.56182 79.94627 27.73532 48.03599 116.98557 -0.26148 17.31877 12.43687 124.42887 -78.59262 126.40034 149.07486 70.43656 -158.86755 49.36944 0.00095 -0.00837 -68.48687 -21.74475 -16.62593 -53.70568 -52.06554 0.94882 -184.45451 54.27013 195.60236 86.58670 -0.00292 0.03214 -88.93342 -68.41009 -28.76626 
48.31444 38.39908 -124.85349 6.22554 -4.71250 6.80069 -57.19930 57.82973 50.54558 0.06551 -0.10634 -0.07419 -13.99641 -24.40677 -3.78895 5.01699 -1.16642 -4.61202 -98.86190 -34.68672 -95.67723 -38.21081 49.94278 -92.21957 6.80419 16.18280 -17.55185 23.65090 -1.21416 4.62257 74.73843 -23.83678 87.63682 33.01418 50.73729 112.16192 -2.26359 11.58031 -5.31940 113.31055 -78.96220 116.44924 156.14166 71.94404 -167.08751 53.29953 0.01417 0.00293 -69.07412 -22.16096 -16.34203 -52.78969 -47.82737 6.59152 -189.72940 57.64002 198.83444 84.09359 0.01233 0.06377 -79.03681 -67.64725 -21.93922 
50.13041 39.27634 -124.02260 6.55803 -5.43968 7.57731 -51.22459 55.40834 44.95818 0.07296 -0.07501 -0.07420 -12.24359 -25.61158 -4.37294 8.25056 -9.10981 -9.00800 -97.28341 -39.63726 -85.45070 -37.13124 51.32663 -97.05933 12.98526 16.17177 -10.53212 28.33039 -9.03173 6.11883 69.73609 -23.97559 79.35207 36.54653 52.47393 109.33577 -4.82371 29.43454 15.34587 97.87431 -79.88509 102.15778 165.52654 71.97859 -176.45929 57.33517 0.06390 0.05062 -69.81493 -24.31377 -16.66921 -52.54015 -43.34855 10.64631 -196.68707 62.48686 202.97574 69.78560 0.12058 0.49495 -57.96086 -65.02333 -15.39242 
52.40319 40.54089 -123.12393 6.76539 -6.17871 8.03021 -44.29834 52.66703 37.87418 0.07379 -0.04069 -0.07142 -10.19316 -26.66227 -4.29256 7.88569 -4.14486 -8.63577 -99.32861 -39.01900 -88.37779 -36.70629 51.97210 -99.37534 6.34286 13.18320 -5.56148 27.92966 -4.09855 4.65760 72.11066 -24.69376 82.83523 31.54420 51.56852 113.42673 2.11620 19.02143 -1.13662 75.68526 -80.55167 81.09737 173.70525 71.24572 -183.66748 60.98401 0.09746 0.06109 -70.40969 -27.62379 -17.09254 -52.77310 -38.90944 13.34346 -205.83871 67.58562 209.73251 55.28653 0.06893 0.48818 -39.06633 -62.00073 -10.85778 
55.46433 42.55057 -122.01550 6.77889 -6.88555 8.07416 -37.15973 49.50390 30.04197 0.06804 -0.01375 -0.06813 -7.73254 -27.63891 -3.60634 6.57887 0.77023 -7.66054 -100.68234 -36.60247 -93.72897 -37.96828 50.33133 -95.98281 9.84436 13.34856 -3.50366 27.27136 0.84587 3.80293 76.77272 -27.42624 87.30988 28.05798 51.06146 115.98382 -2.97915 14.16101 7.12810 48.78580 -79.85789 55.32211 181.40405 71.76447 -189.56850 64.34648 0.08416 0.03320 -71.28157 -30.21768 -17.54353 -53.21589 -34.47097 14.95489 -220.19299 72.83658 222.15430 40.72427 0.05491 0.47843 -21.54711 -57.10541 -8.20009 
58.91358 44.78582 -120.83861 5.50672 -7.48522 5.87432 -30.58504 44.90026 23.92780 0.06035 0.00948 -0.05823 -4.71715 -28.31822 -2.44381 10.04501 -2.27054 -12.83537 -104.13278 -44.05093 -89.85830 -38.82802 49.72790 -94.61333 -6.75916 7.12646 -14.47917 31.28219 -4.25082 0.27448 73.14890 -25.66302 82.33393 32.06899 53.42220 112.40746 -0.20984 6.60547 -0.94284 34.06771 -76.57642 40.86069 189.49641 72.91833 -195.29599 67.41170 0.07108 0.02869 -72.06702 -32.67826 -17.93874 -52.08675 -31.56624 16.66965 -246.45161 77.04588 246.86493 26.09270 0.03476 0.51413 -5.94680 -51.58232 -7.14995 
62.96463 47.64660 -119.50391 3.24580 -7.70590 1.77233 -24.41918 39.49342 19.25616 0.05464 0.02717 -0.05665 -1.07880 -28.31520 -0.78309 7.28509 2.96895 -10.25981 -105.37355 -43.79181 -92.69728 -40.58590 52.22348 -97.03284 5.41526 7.73027 0.45871 28.82337 1.76248 1.00767 77.19695 -28.28771 85.93708 27.60583 52.14988 113.45453 -7.05802 20.43055 2.62904 29.11589 -72.16024 35.78846 198.68558 74.48378 -201.68800 70.18221 0.06645 0.02752 -72.74789 -35.12093 -18.19562 -49.83155 -29.93583 18.25203 -292.33905 76.75024 291.10513 30.77094 -0.10036 -0.15418 -1.74839 -29.23750 -4.67672 
67.17657 50.66250 -118.15200 0.24499 -7.38695 -3.89701 -18.35558 33.84272 15.78235 0.04862 0.03778 -0.05276 2.66070 -27.10175 0.91279 3.82682 7.43473 -6.77545 -106.52074 -44.09404 -94.76262 -42.06018 53.43177 -97.76396 -0.00765 7.59924 -3.11828 25.32634 7.39330 2.87300 79.71967 -29.41047 87.78319 24.89085 51.74225 113.89726 -3.78793 2.95988 -0.57056 28.93092 -67.10468 35.43969 209.39124 76.46379 -209.39966 72.46918 0.05616 0.02141 -73.49134 -37.65266 -18.38555 -46.73009 -29.24143 19.65246 -321.12421 70.18964 318.37457 34.61846 -0.05728 -0.18946 -10.13553 -29.21163 -5.98835 
71.65501 54.25819 -116.64606 -3.09676 -6.53664 -10.85099 -12.35160 28.57017 13.40696 0.03882 0.05188 -0.04512 6.00348 -24.30112 2.49444 5.97049 5.20860 -11.02801 -111.86112 -54.04071 -92.69514 -43.26299 54.01991 -97.98029 6.07283 8.35550 3.93248 25.51279 3.55610 -1.25708 73.27900 -21.25698 80.43727 23.51429 51.33807 113.53651 -9.50653 28.34028 -1.25306 30.39993 -61.33752 37.10818 223.94740 78.66907 -220.89963 74.32742 0.04624 0.01684 -74.25438 -39.79587 -18.26579 -43.01589 -29.10426 21.02533 -332.69614 61.10777 328.04330 32.18584 -0.05631 0.08344 2.78194 -8.33086 -10.51909 
